<?xml version="1.0" encoding="UTF-8"?><svg id="Layer_1" xmlns="http://www.w3.org/2000/svg" viewBox="0 0 2000 2000"><defs><style>.cls-1{fill:#fff;}.cls-2{fill:#282828;}</style></defs><rect class="cls-1" width="2000" height="2000"/><path class="cls-2" d="M1060.61,1255.96c-1.38,0-2.77-.27-4.09-.82l-38.35-16.02c-5.75-2.41-11.83-3.62-18.07-3.62s-12.54,1.22-18.29,3.62l-38.35,16.02c-3.52,1.46-7.57.93-10.58-1.4-3.01-2.33-4.55-6.12-4.01-9.89l2.41-16.93c1.23-8.68,6.19-16.36,13.59-21.06l29.5-18.75-14.76-93.67c-.16-1.08-.32-2.14-.46-3.21l-115.44,25.22c-3.96.86-8.01-.55-10.56-3.7-2.55-3.15-3.11-7.41-1.44-11.11l10.54-23.36c5.5-12.2,15.89-21.77,28.5-26.27l86.17-30.71c.41-.15.69-.54.69-.98v-41.27c0-22.25,7.99-43.79,22.49-60.66,5.01-5.83,12.27-9.18,19.91-9.18,7.64,0,14.9,3.34,19.92,9.17,14.5,16.87,22.49,38.41,22.49,60.66v41.27c0,.44.28.83.7.98l86.16,30.71c12.61,4.5,23,14.07,28.5,26.27l10.54,23.36c1.67,3.7,1.12,7.95-1.44,11.11-2.56,3.15-6.61,4.57-10.57,3.7l-115.44-25.22c-.14,1.05-.29,2.11-.45,3.16l-14.77,93.71,29.5,18.75c7.4,4.71,12.35,12.39,13.59,21.07l2.41,16.92c.54,3.77-1,7.57-4.02,9.89-1.89,1.46-4.18,2.21-6.5,2.21ZM961.74,1073.61c2.68,0,5.32.83,7.53,2.41,3,2.15,4.97,5.5,5.38,9.18.22,1.94.47,3.88.77,5.8l15,95.21c.81,5.36-1.6,10.67-6.13,13.56l-30.83,19.6c-3.45,2.2-5.76,5.77-6.33,9.82l-1.07,7.54,29.6-12.37c7.72-3.22,15.87-4.86,24.24-4.86s16.75,1.64,24.46,4.86l29.6,12.37-1.07-7.54c-.57-4.05-2.88-7.62-6.33-9.82l-30.82-19.6c-4.55-2.89-6.96-8.2-6.14-13.52l15.01-95.29c.29-1.88.54-3.82.76-5.75.42-3.69,2.38-7.04,5.39-9.19,2.97-2.12,6.73-2.9,10.3-2.11l108.31,23.66-6.18-13.7c-3.72-8.25-10.75-14.73-19.29-17.78l-86.16-30.71c-6.77-2.42-11.32-8.87-11.32-16.05v-41.27c0-18.42-6.61-36.26-18.62-50.23-4-4.65-11.56-4.65-15.56,0-12.01,13.97-18.62,31.81-18.62,50.23v41.27c0,7.18-4.55,13.63-11.31,16.05l-86.17,30.71c-8.53,3.04-15.56,9.52-19.28,17.77l-6.18,13.7,108.32-23.66c.91-.2,1.84-.3,2.76-.3Z"/><path class="cls-2" d="M649.64,1508c-3.49,0-6.98-1.3-9.71-3.9-34.7-33.19-147.93-147.35-147.93-223,0-86.92,70.71-157.64,157.64-157.64s157.64,70.71,157.64,157.64c0,75.65-113.23,189.81-147.93,222.99-2.72,2.6-6.22,3.9-9.71,3.9ZM649.64,1139.47c-78.1,0-141.64,63.54-141.64,141.64,0,54.75,75.98,147.09,141.64,210.14,65.66-63.05,141.64-155.38,141.64-210.14,0-78.1-63.54-141.64-141.64-141.64Z"/><path class="cls-2" d="M649.64,1374.41c-51.45,0-93.3-41.86-93.3-93.3s41.85-93.3,93.3-93.3,93.3,41.86,93.3,93.3-41.86,93.3-93.3,93.3ZM649.64,1203.81c-42.62,0-77.3,34.68-77.3,77.3s34.68,77.3,77.3,77.3,77.3-34.68,77.3-77.3-34.68-77.3-77.3-77.3Z"/><path class="cls-2" d="M1322.61,862.78c-102.23,0-185.39-83.17-185.39-185.39s83.16-185.39,185.39-185.39,185.39,83.17,185.39,185.39-83.16,185.39-185.39,185.39ZM1322.61,508c-93.4,0-169.39,75.99-169.39,169.39s75.99,169.39,169.39,169.39,169.39-75.99,169.39-169.39-75.99-169.39-169.39-169.39Z"/><path class="cls-2" d="M1300.41,741.89c-2.73,0-5.3-1.06-7.23-3l-48.86-48.86c-3.12-3.12-3.12-8.19,0-11.31,3.12-3.12,8.19-3.12,11.31,0l44.78,44.78,102.52-102.52c3.12-3.12,8.19-3.12,11.31,0,3.12,3.12,3.12,8.19,0,11.31l-106.61,106.61c-1.93,1.93-4.5,2.99-7.22,2.99ZM1304.49,727.58h0s0,0,0,0Z"/><path class="cls-2" d="M768.57,1140.17c-4.42,0-8-3.58-8-8v-366.03c0-60.62,49.32-109.95,109.95-109.95h229.77c4.42,0,8,3.58,8,8s-3.58,8-8,8h-229.77c-51.8,0-93.95,42.14-93.95,93.95v366.03c0,4.42-3.58,8-8,8Z"/><path class="cls-2" d="M1129.48,1508h-258.97c-47.52,0-89.47-30.29-104.39-75.36-1.39-4.2.88-8.72,5.08-10.11,4.19-1.4,8.72.88,10.11,5.08,12.75,38.52,48.6,64.39,89.21,64.39h258.97c51.8,0,93.95-42.14,93.95-93.95v-519.21c0-4.42,3.58-8,8-8s8,3.58,8,8v519.21c0,60.62-49.32,109.95-109.95,109.95Z"/><path class="cls-2" d="M1036.88,720.75h-73.77c-4.42,0-8-3.58-8-8s3.58-8,8-8h73.77c4.42,0,8,3.58,8,8s-3.58,8-8,8Z"/><path class="cls-2" d="M935,720.75h-7.68c-4.42,0-8-3.58-8-8s3.58-8,8-8h7.68c4.42,0,8,3.58,8,8s-3.58,8-8,8Z"/><path class="cls-2" d="M1072.68,720.75h-7.68c-4.42,0-8-3.58-8-8s3.58-8,8-8h7.68c4.42,0,8,3.58,8,8s-3.58,8-8,8Z"/><path class="cls-2" d="M782.17,649.16c-4.42,0-8-3.58-8-8v-70.58c0-4.42,3.58-8,8-8s8,3.58,8,8v70.58c0,4.42-3.58,8-8,8Z"/><path class="cls-2" d="M742.17,649.16c-2.05,0-4.1-.78-5.66-2.34l-49.91-49.91c-3.12-3.12-3.12-8.19,0-11.31,3.12-3.12,8.19-3.12,11.31,0l49.91,49.91c3.12,3.12,3.12,8.19,0,11.31-1.56,1.56-3.61,2.34-5.66,2.34Z"/><path class="cls-2" d="M742.17,689.16h-70.58c-4.42,0-8-3.58-8-8s3.58-8,8-8h70.58c4.42,0,8,3.58,8,8s-3.58,8-8,8Z"/></svg>